<mxfile host="app.diagrams.net" agent="Mozilla/5.0 (Macintosh; Intel Mac OS X 10_15_7) AppleWebKit/605.1.15 (KHTML, like Gecko) Version/18.6 Safari/605.1.15" version="28.1.0">
  <diagram name="Page-1" id="v8kcRsboXOkJTreoNOFN">
    <mxGraphModel dx="1139" dy="667" grid="1" gridSize="10" guides="1" tooltips="1" connect="1" arrows="1" fold="1" page="1" pageScale="1" pageWidth="850" pageHeight="1100" math="0" shadow="0">
      <root>
        <mxCell id="0" />
        <mxCell id="1" parent="0" />
        <mxCell id="AnTes73A0zcBJoY5SzQ1-1" value="" style="rounded=0;whiteSpace=wrap;html=1;" vertex="1" parent="1">
          <mxGeometry x="200" y="40" width="400" height="280" as="geometry" />
        </mxCell>
        <mxCell id="AnTes73A0zcBJoY5SzQ1-3" value="" style="rounded=0;whiteSpace=wrap;html=1;" vertex="1" parent="1">
          <mxGeometry x="180" y="40" width="20" height="280" as="geometry" />
        </mxCell>
        <mxCell id="AnTes73A0zcBJoY5SzQ1-4" value="" style="rounded=0;whiteSpace=wrap;html=1;" vertex="1" parent="1">
          <mxGeometry x="160" y="40" width="20" height="280" as="geometry" />
        </mxCell>
        <mxCell id="AnTes73A0zcBJoY5SzQ1-5" value="" style="rounded=0;whiteSpace=wrap;html=1;strokeColor=default;align=center;verticalAlign=middle;fontFamily=Helvetica;fontSize=12;fontColor=default;fillColor=default;" vertex="1" parent="1">
          <mxGeometry x="120" y="40" width="40" height="280" as="geometry" />
        </mxCell>
        <mxCell id="AnTes73A0zcBJoY5SzQ1-6" value="" style="rounded=0;whiteSpace=wrap;html=1;strokeColor=default;align=center;verticalAlign=middle;fontFamily=Helvetica;fontSize=12;fontColor=default;fillColor=default;" vertex="1" parent="1">
          <mxGeometry x="600" y="40" width="40" height="280" as="geometry" />
        </mxCell>
        <mxCell id="AnTes73A0zcBJoY5SzQ1-7" value="&lt;font style=&quot;font-size: 17px;&quot;&gt;&lt;b&gt;Closed Cell showing only the rendered content&lt;/b&gt;&lt;/font&gt;" style="text;html=1;align=center;verticalAlign=middle;resizable=0;points=[];autosize=1;strokeColor=none;fillColor=none;" vertex="1" parent="1">
          <mxGeometry x="120" width="400" height="30" as="geometry" />
        </mxCell>
        <mxCell id="AnTes73A0zcBJoY5SzQ1-8" value="Responsive margin" style="text;html=1;align=center;verticalAlign=middle;whiteSpace=wrap;rounded=0;" vertex="1" parent="1">
          <mxGeometry x="590" y="220" width="60" height="30" as="geometry" />
        </mxCell>
        <mxCell id="AnTes73A0zcBJoY5SzQ1-9" value="Responsive margin" style="text;html=1;align=center;verticalAlign=middle;whiteSpace=wrap;rounded=0;" vertex="1" parent="1">
          <mxGeometry x="110" y="220" width="60" height="30" as="geometry" />
        </mxCell>
        <mxCell id="AnTes73A0zcBJoY5SzQ1-10" value="Rendered Content stretched to 100% less the responsive margins and the 2 gutters" style="text;html=1;align=center;verticalAlign=middle;whiteSpace=wrap;rounded=0;" vertex="1" parent="1">
          <mxGeometry x="330" y="100" width="160" height="100" as="geometry" />
        </mxCell>
      </root>
    </mxGraphModel>
  </diagram>
</mxfile>
